<svg xmlns="http://www.w3.org/2000/svg" xmlns:xlink="http://www.w3.org/1999/xlink" width="500" zoomAndPan="magnify" viewBox="0 0 375 374.999991" height="500" preserveAspectRatio="xMidYMid meet" version="1.0"><defs><g/><clipPath id="bab9d5a7eb"><path d="M 12.515625 12.515625 L 362.484375 12.515625 L 362.484375 362.484375 L 12.515625 362.484375 Z M 12.515625 12.515625 " clip-rule="nonzero"/></clipPath><clipPath id="66c9f52ec7"><path d="M 187.5 12.515625 C 90.859375 12.515625 12.515625 90.859375 12.515625 187.5 C 12.515625 284.140625 90.859375 362.484375 187.5 362.484375 C 284.140625 362.484375 362.484375 284.140625 362.484375 187.5 C 362.484375 90.859375 284.140625 12.515625 187.5 12.515625 " clip-rule="nonzero"/></clipPath><clipPath id="867a216414"><path d="M 231.574219 280.328125 L 257.824219 280.328125 L 257.824219 300.578125 L 231.574219 300.578125 Z M 231.574219 280.328125 " clip-rule="nonzero"/></clipPath><clipPath id="7158d865cf"><path d="M 138 166 L 233 166 L 233 251 L 138 251 Z M 138 166 " clip-rule="nonzero"/></clipPath><clipPath id="a9e87bfaf4"><path d="M 104 64.164062 L 228.6875 37.53125 L 271.304688 237.03125 L 146.617188 263.664062 Z M 104 64.164062 " clip-rule="nonzero"/></clipPath><clipPath id="d0dec3c297"><path d="M 104 64.164062 L 228.6875 37.53125 L 271.304688 237.03125 L 146.617188 263.664062 Z M 104 64.164062 " clip-rule="nonzero"/></clipPath><clipPath id="71d04fd172"><path d="M 104 64.164062 L 228.6875 37.53125 L 271.304688 237.03125 L 146.617188 263.664062 Z M 104 64.164062 " clip-rule="nonzero"/></clipPath><clipPath id="7ae3fb0bc7"><path d="M 181 39 L 229 39 L 229 180 L 181 180 Z M 181 39 " clip-rule="nonzero"/></clipPath><clipPath id="80287ee653"><path d="M 104 64.164062 L 228.6875 37.53125 L 271.304688 237.03125 L 146.617188 263.664062 Z M 104 64.164062 " clip-rule="nonzero"/></clipPath><clipPath id="39a2a00f37"><path d="M 104 64.164062 L 228.6875 37.53125 L 271.304688 237.03125 L 146.617188 263.664062 Z M 104 64.164062 " clip-rule="nonzero"/></clipPath><clipPath id="fc3045d0a9"><path d="M 104 64.164062 L 228.6875 37.53125 L 271.304688 237.03125 L 146.617188 263.664062 Z M 104 64.164062 " clip-rule="nonzero"/></clipPath><clipPath id="c22b638c42"><path d="M 179 40 L 220 40 L 220 179 L 179 179 Z M 179 40 " clip-rule="nonzero"/></clipPath><clipPath id="a98ea3ce26"><path d="M 104 64.164062 L 228.6875 37.53125 L 271.304688 237.03125 L 146.617188 263.664062 Z M 104 64.164062 " clip-rule="nonzero"/></clipPath><clipPath id="34bebb11be"><path d="M 104 64.164062 L 228.6875 37.53125 L 271.304688 237.03125 L 146.617188 263.664062 Z M 104 64.164062 " clip-rule="nonzero"/></clipPath><clipPath id="6f03a560c4"><path d="M 104 64.164062 L 228.6875 37.53125 L 271.304688 237.03125 L 146.617188 263.664062 Z M 104 64.164062 " clip-rule="nonzero"/></clipPath><clipPath id="8ed68da208"><path d="M 152 171 L 205 171 L 205 209 L 152 209 Z M 152 171 " clip-rule="nonzero"/></clipPath><clipPath id="2bfdccb567"><path d="M 104 64.164062 L 228.6875 37.53125 L 271.304688 237.03125 L 146.617188 263.664062 Z M 104 64.164062 " clip-rule="nonzero"/></clipPath><clipPath id="54b1fb4d17"><path d="M 104 64.164062 L 228.6875 37.53125 L 271.304688 237.03125 L 146.617188 263.664062 Z M 104 64.164062 " clip-rule="nonzero"/></clipPath><clipPath id="b5a2f1c844"><path d="M 104 64.164062 L 228.6875 37.53125 L 271.304688 237.03125 L 146.617188 263.664062 Z M 104 64.164062 " clip-rule="nonzero"/></clipPath></defs><rect x="-37.5" width="450" fill="#ffffff" y="-37.499999" height="449.999989" fill-opacity="1"/><rect x="-37.5" width="450" fill="#ffffff" y="-37.499999" height="449.999989" fill-opacity="1"/><rect x="-37.5" width="450" fill="#ffffff" y="-37.499999" height="449.999989" fill-opacity="1"/><g clip-path="url(#bab9d5a7eb)"><g clip-path="url(#66c9f52ec7)"><path fill="#121212" d="M 12.515625 12.515625 L 362.484375 12.515625 L 362.484375 362.484375 L 12.515625 362.484375 Z M 12.515625 12.515625 " fill-opacity="1" fill-rule="nonzero"/></g></g><g fill="#ffffff" fill-opacity="1"><g transform="translate(143.113048, 276.802746)"><g><path d="M 0.53125 -5.25 C 0.53125 -6.28125 0.757812 -7.203125 1.21875 -8.015625 C 1.6875 -8.828125 2.320312 -9.460938 3.125 -9.921875 C 3.925781 -10.378906 4.828125 -10.609375 5.828125 -10.609375 C 7.003906 -10.609375 8.03125 -10.304688 8.90625 -9.703125 C 9.789062 -9.109375 10.40625 -8.28125 10.75 -7.21875 L 8.34375 -7.21875 C 8.101562 -7.71875 7.765625 -8.09375 7.328125 -8.34375 C 6.890625 -8.59375 6.382812 -8.71875 5.8125 -8.71875 C 5.207031 -8.71875 4.664062 -8.570312 4.1875 -8.28125 C 3.71875 -8 3.347656 -7.597656 3.078125 -7.078125 C 2.816406 -6.554688 2.6875 -5.945312 2.6875 -5.25 C 2.6875 -4.5625 2.816406 -3.953125 3.078125 -3.421875 C 3.347656 -2.898438 3.71875 -2.492188 4.1875 -2.203125 C 4.664062 -1.921875 5.207031 -1.78125 5.8125 -1.78125 C 6.382812 -1.78125 6.890625 -1.90625 7.328125 -2.15625 C 7.765625 -2.414062 8.101562 -2.796875 8.34375 -3.296875 L 10.75 -3.296875 C 10.40625 -2.222656 9.796875 -1.390625 8.921875 -0.796875 C 8.046875 -0.203125 7.015625 0.09375 5.828125 0.09375 C 4.828125 0.09375 3.925781 -0.132812 3.125 -0.59375 C 2.320312 -1.050781 1.6875 -1.679688 1.21875 -2.484375 C 0.757812 -3.296875 0.53125 -4.21875 0.53125 -5.25 Z M 0.53125 -5.25 "/></g></g></g><g fill="#ffffff" fill-opacity="1"><g transform="translate(164.475315, 276.802746)"><g><path d="M 9.71875 -10.46875 L 9.71875 0 L 7.625 0 L 7.625 -4.453125 L 3.140625 -4.453125 L 3.140625 0 L 1.03125 0 L 1.03125 -10.46875 L 3.140625 -10.46875 L 3.140625 -6.171875 L 7.625 -6.171875 L 7.625 -10.46875 Z M 9.71875 -10.46875 "/></g></g></g><g fill="#ffffff" fill-opacity="1"><g transform="translate(185.073174, 276.802746)"><g><path d="M 3.140625 -8.78125 L 3.140625 -6.15625 L 6.65625 -6.15625 L 6.65625 -4.484375 L 3.140625 -4.484375 L 3.140625 -1.703125 L 7.109375 -1.703125 L 7.109375 0 L 1.03125 0 L 1.03125 -10.484375 L 7.109375 -10.484375 L 7.109375 -8.78125 Z M 3.140625 -8.78125 "/></g></g></g><g fill="#ffffff" fill-opacity="1"><g transform="translate(202.898187, 276.802746)"><g><path d="M 6.4375 0 L 4.125 -4.078125 L 3.140625 -4.078125 L 3.140625 0 L 1.03125 0 L 1.03125 -10.46875 L 4.96875 -10.46875 C 5.78125 -10.46875 6.46875 -10.320312 7.03125 -10.03125 C 7.601562 -9.75 8.03125 -9.363281 8.3125 -8.875 C 8.601562 -8.394531 8.75 -7.859375 8.75 -7.265625 C 8.75 -6.566406 8.546875 -5.941406 8.140625 -5.390625 C 7.742188 -4.835938 7.148438 -4.457031 6.359375 -4.25 L 8.859375 0 Z M 3.140625 -5.65625 L 4.890625 -5.65625 C 5.460938 -5.65625 5.882812 -5.789062 6.15625 -6.0625 C 6.4375 -6.34375 6.578125 -6.726562 6.578125 -7.21875 C 6.578125 -7.695312 6.4375 -8.066406 6.15625 -8.328125 C 5.882812 -8.597656 5.460938 -8.734375 4.890625 -8.734375 L 3.140625 -8.734375 Z M 3.140625 -5.65625 "/></g></g></g><g fill="#ffffff" fill-opacity="1"><g transform="translate(222.356935, 276.802746)"><g><path d="M 9.359375 -10.46875 L 5.8125 -3.640625 L 5.8125 0 L 3.71875 0 L 3.71875 -3.640625 L 0.171875 -10.46875 L 2.53125 -10.46875 L 4.78125 -5.6875 L 7.015625 -10.46875 Z M 9.359375 -10.46875 "/></g></g></g><g fill="#ffffff" fill-opacity="1"><g transform="translate(81.683364, 297.052744)"><g><path d="M 8.671875 -7.234375 C 8.671875 -6.671875 8.535156 -6.144531 8.265625 -5.65625 C 8.003906 -5.164062 7.59375 -4.769531 7.03125 -4.46875 C 6.46875 -4.164062 5.753906 -4.015625 4.890625 -4.015625 L 3.140625 -4.015625 L 3.140625 0 L 1.03125 0 L 1.03125 -10.46875 L 4.890625 -10.46875 C 5.703125 -10.46875 6.390625 -10.328125 6.953125 -10.046875 C 7.523438 -9.765625 7.953125 -9.378906 8.234375 -8.890625 C 8.523438 -8.398438 8.671875 -7.847656 8.671875 -7.234375 Z M 4.796875 -5.71875 C 5.378906 -5.71875 5.8125 -5.847656 6.09375 -6.109375 C 6.375 -6.378906 6.515625 -6.753906 6.515625 -7.234375 C 6.515625 -8.253906 5.941406 -8.765625 4.796875 -8.765625 L 3.140625 -8.765625 L 3.140625 -5.71875 Z M 4.796875 -5.71875 "/></g></g></g><g fill="#ffffff" fill-opacity="1"><g transform="translate(100.647499, 297.052744)"><g><path d="M 6.4375 0 L 4.125 -4.078125 L 3.140625 -4.078125 L 3.140625 0 L 1.03125 0 L 1.03125 -10.46875 L 4.96875 -10.46875 C 5.78125 -10.46875 6.46875 -10.320312 7.03125 -10.03125 C 7.601562 -9.75 8.03125 -9.363281 8.3125 -8.875 C 8.601562 -8.394531 8.75 -7.859375 8.75 -7.265625 C 8.75 -6.566406 8.546875 -5.941406 8.140625 -5.390625 C 7.742188 -4.835938 7.148438 -4.457031 6.359375 -4.25 L 8.859375 0 Z M 3.140625 -5.65625 L 4.890625 -5.65625 C 5.460938 -5.65625 5.882812 -5.789062 6.15625 -6.0625 C 6.4375 -6.34375 6.578125 -6.726562 6.578125 -7.21875 C 6.578125 -7.695312 6.4375 -8.066406 6.15625 -8.328125 C 5.882812 -8.597656 5.460938 -8.734375 4.890625 -8.734375 L 3.140625 -8.734375 Z M 3.140625 -5.65625 "/></g></g></g><g fill="#ffffff" fill-opacity="1"><g transform="translate(120.106248, 297.052744)"><g><path d="M 5.890625 0.109375 C 4.910156 0.109375 4.007812 -0.117188 3.1875 -0.578125 C 2.375 -1.046875 1.726562 -1.6875 1.25 -2.5 C 0.769531 -3.3125 0.53125 -4.234375 0.53125 -5.265625 C 0.53125 -6.285156 0.769531 -7.203125 1.25 -8.015625 C 1.726562 -8.828125 2.375 -9.460938 3.1875 -9.921875 C 4.007812 -10.390625 4.910156 -10.625 5.890625 -10.625 C 6.878906 -10.625 7.78125 -10.390625 8.59375 -9.921875 C 9.414062 -9.460938 10.0625 -8.828125 10.53125 -8.015625 C 11.007812 -7.203125 11.25 -6.285156 11.25 -5.265625 C 11.25 -4.234375 11.007812 -3.3125 10.53125 -2.5 C 10.0625 -1.6875 9.414062 -1.046875 8.59375 -0.578125 C 7.769531 -0.117188 6.867188 0.109375 5.890625 0.109375 Z M 5.890625 -1.765625 C 6.523438 -1.765625 7.082031 -1.90625 7.5625 -2.1875 C 8.039062 -2.476562 8.414062 -2.890625 8.6875 -3.421875 C 8.957031 -3.953125 9.09375 -4.566406 9.09375 -5.265625 C 9.09375 -5.960938 8.957031 -6.570312 8.6875 -7.09375 C 8.414062 -7.625 8.039062 -8.03125 7.5625 -8.3125 C 7.082031 -8.59375 6.523438 -8.734375 5.890625 -8.734375 C 5.265625 -8.734375 4.707031 -8.59375 4.21875 -8.3125 C 3.738281 -8.03125 3.363281 -7.625 3.09375 -7.09375 C 2.820312 -6.570312 2.6875 -5.960938 2.6875 -5.265625 C 2.6875 -4.566406 2.820312 -3.953125 3.09375 -3.421875 C 3.363281 -2.890625 3.738281 -2.476562 4.21875 -2.1875 C 4.707031 -1.90625 5.265625 -1.765625 5.890625 -1.765625 Z M 5.890625 -1.765625 "/></g></g></g><g fill="#ffffff" fill-opacity="1"><g transform="translate(141.723318, 297.052744)"><g><path d="M 4.6875 -10.46875 C 5.789062 -10.46875 6.757812 -10.253906 7.59375 -9.828125 C 8.425781 -9.398438 9.070312 -8.785156 9.53125 -7.984375 C 9.988281 -7.191406 10.21875 -6.269531 10.21875 -5.21875 C 10.21875 -4.164062 9.988281 -3.25 9.53125 -2.46875 C 9.070312 -1.6875 8.425781 -1.078125 7.59375 -0.640625 C 6.757812 -0.210938 5.789062 0 4.6875 0 L 1.03125 0 L 1.03125 -10.46875 Z M 4.625 -1.78125 C 5.71875 -1.78125 6.5625 -2.078125 7.15625 -2.671875 C 7.757812 -3.273438 8.0625 -4.125 8.0625 -5.21875 C 8.0625 -6.3125 7.757812 -7.164062 7.15625 -7.78125 C 6.5625 -8.394531 5.71875 -8.703125 4.625 -8.703125 L 3.140625 -8.703125 L 3.140625 -1.78125 Z M 4.625 -1.78125 "/></g></g></g><g fill="#ffffff" fill-opacity="1"><g transform="translate(162.321177, 297.052744)"><g><path d="M 3.109375 -10.46875 L 3.109375 -3.984375 C 3.109375 -3.273438 3.289062 -2.734375 3.65625 -2.359375 C 4.03125 -1.984375 4.550781 -1.796875 5.21875 -1.796875 C 5.894531 -1.796875 6.414062 -1.984375 6.78125 -2.359375 C 7.15625 -2.734375 7.34375 -3.273438 7.34375 -3.984375 L 7.34375 -10.46875 L 9.46875 -10.46875 L 9.46875 -4 C 9.46875 -3.113281 9.273438 -2.363281 8.890625 -1.75 C 8.503906 -1.132812 7.988281 -0.671875 7.34375 -0.359375 C 6.695312 -0.046875 5.976562 0.109375 5.1875 0.109375 C 4.40625 0.109375 3.695312 -0.046875 3.0625 -0.359375 C 2.425781 -0.671875 1.921875 -1.132812 1.546875 -1.75 C 1.179688 -2.363281 1 -3.113281 1 -4 L 1 -10.46875 Z M 3.109375 -10.46875 "/></g></g></g><g fill="#ffffff" fill-opacity="1"><g transform="translate(182.619263, 297.052744)"><g><path d="M 0.53125 -5.25 C 0.53125 -6.28125 0.757812 -7.203125 1.21875 -8.015625 C 1.6875 -8.828125 2.320312 -9.460938 3.125 -9.921875 C 3.925781 -10.378906 4.828125 -10.609375 5.828125 -10.609375 C 7.003906 -10.609375 8.03125 -10.304688 8.90625 -9.703125 C 9.789062 -9.109375 10.40625 -8.28125 10.75 -7.21875 L 8.34375 -7.21875 C 8.101562 -7.71875 7.765625 -8.09375 7.328125 -8.34375 C 6.890625 -8.59375 6.382812 -8.71875 5.8125 -8.71875 C 5.207031 -8.71875 4.664062 -8.570312 4.1875 -8.28125 C 3.71875 -8 3.347656 -7.597656 3.078125 -7.078125 C 2.816406 -6.554688 2.6875 -5.945312 2.6875 -5.25 C 2.6875 -4.5625 2.816406 -3.953125 3.078125 -3.421875 C 3.347656 -2.898438 3.71875 -2.492188 4.1875 -2.203125 C 4.664062 -1.921875 5.207031 -1.78125 5.8125 -1.78125 C 6.382812 -1.78125 6.890625 -1.90625 7.328125 -2.15625 C 7.765625 -2.414062 8.101562 -2.796875 8.34375 -3.296875 L 10.75 -3.296875 C 10.40625 -2.222656 9.796875 -1.390625 8.921875 -0.796875 C 8.046875 -0.203125 7.015625 0.09375 5.828125 0.09375 C 4.828125 0.09375 3.925781 -0.132812 3.125 -0.59375 C 2.320312 -1.050781 1.6875 -1.679688 1.21875 -2.484375 C 0.757812 -3.296875 0.53125 -4.21875 0.53125 -5.25 Z M 0.53125 -5.25 "/></g></g></g><g fill="#ffffff" fill-opacity="1"><g transform="translate(203.981536, 297.052744)"><g><path d="M 8.15625 -10.46875 L 8.15625 -8.78125 L 5.375 -8.78125 L 5.375 0 L 3.265625 0 L 3.265625 -8.78125 L 0.484375 -8.78125 L 0.484375 -10.46875 Z M 8.15625 -10.46875 "/></g></g></g><g fill="#ffffff" fill-opacity="1"><g transform="translate(222.481024, 297.052744)"><g><path d="M 3.140625 -10.46875 L 3.140625 0 L 1.03125 0 L 1.03125 -10.46875 Z M 3.140625 -10.46875 "/></g></g></g><g fill="#ffffff" fill-opacity="1"><g transform="translate(236.488041, 297.052744)"><g/></g></g><g fill="#ffffff" fill-opacity="1"><g transform="translate(249.906473, 297.052744)"><g/></g></g><g fill="#ffffff" fill-opacity="1"><g transform="translate(263.323977, 297.052744)"><g><path d="M 9.984375 0 L 7.890625 0 L 3.140625 -7.1875 L 3.140625 0 L 1.03125 0 L 1.03125 -10.484375 L 3.140625 -10.484375 L 7.890625 -3.28125 L 7.890625 -10.484375 L 9.984375 -10.484375 Z M 9.984375 0 "/></g></g></g><g fill="#ffffff" fill-opacity="1"><g transform="translate(284.191631, 297.052744)"><g><path d="M 4.65625 0.109375 C 3.925781 0.109375 3.265625 -0.015625 2.671875 -0.265625 C 2.085938 -0.515625 1.625 -0.875 1.28125 -1.34375 C 0.945312 -1.820312 0.773438 -2.378906 0.765625 -3.015625 L 3.015625 -3.015625 C 3.046875 -2.585938 3.195312 -2.25 3.46875 -2 C 3.75 -1.75 4.128906 -1.625 4.609375 -1.625 C 5.097656 -1.625 5.484375 -1.738281 5.765625 -1.96875 C 6.046875 -2.207031 6.1875 -2.515625 6.1875 -2.890625 C 6.1875 -3.203125 6.085938 -3.457031 5.890625 -3.65625 C 5.703125 -3.851562 5.460938 -4.007812 5.171875 -4.125 C 4.890625 -4.25 4.5 -4.378906 4 -4.515625 C 3.320312 -4.710938 2.769531 -4.910156 2.34375 -5.109375 C 1.914062 -5.304688 1.550781 -5.597656 1.25 -5.984375 C 0.945312 -6.378906 0.796875 -6.910156 0.796875 -7.578125 C 0.796875 -8.191406 0.945312 -8.726562 1.25 -9.1875 C 1.5625 -9.65625 2 -10.007812 2.5625 -10.25 C 3.125 -10.5 3.765625 -10.625 4.484375 -10.625 C 5.566406 -10.625 6.441406 -10.359375 7.109375 -9.828125 C 7.785156 -9.304688 8.160156 -8.578125 8.234375 -7.640625 L 5.921875 -7.640625 C 5.898438 -7.992188 5.75 -8.285156 5.46875 -8.515625 C 5.1875 -8.753906 4.804688 -8.875 4.328125 -8.875 C 3.921875 -8.875 3.59375 -8.769531 3.34375 -8.5625 C 3.101562 -8.351562 2.984375 -8.050781 2.984375 -7.65625 C 2.984375 -7.375 3.078125 -7.140625 3.265625 -6.953125 C 3.453125 -6.765625 3.679688 -6.613281 3.953125 -6.5 C 4.222656 -6.382812 4.609375 -6.253906 5.109375 -6.109375 C 5.796875 -5.910156 6.351562 -5.707031 6.78125 -5.5 C 7.207031 -5.300781 7.578125 -5 7.890625 -4.59375 C 8.203125 -4.195312 8.359375 -3.675781 8.359375 -3.03125 C 8.359375 -2.46875 8.210938 -1.945312 7.921875 -1.46875 C 7.628906 -0.988281 7.203125 -0.601562 6.640625 -0.3125 C 6.085938 -0.03125 5.425781 0.109375 4.65625 0.109375 Z M 4.65625 0.109375 "/></g></g></g><g clip-path="url(#867a216414)"><path fill="#ffffff" d="M 256.507812 283.75 L 251.007812 283.75 L 250.820312 282.460938 L 250.679688 281.59375 C 250.621094 281.246094 250.433594 280.953125 250.136719 280.710938 C 249.832031 280.464844 249.507812 280.335938 249.148438 280.335938 L 240.203125 280.335938 C 239.847656 280.335938 239.519531 280.460938 239.21875 280.710938 C 238.917969 280.964844 238.757812 281.261719 238.703125 281.59375 L 238.5625 282.460938 L 238.363281 283.75 L 232.886719 283.75 C 232.160156 283.75 231.574219 284.324219 231.574219 285.007812 L 231.574219 299.285156 C 231.574219 299.996094 232.160156 300.570312 232.886719 300.570312 L 256.507812 300.570312 C 257.238281 300.570312 257.824219 299.996094 257.824219 299.285156 L 257.824219 285.007812 C 257.824219 284.324219 257.238281 283.75 256.507812 283.75 Z M 256.238281 299.019531 L 233.144531 299.019531 L 233.144531 285.289062 L 238.363281 285.289062 C 239.148438 285.289062 239.828125 284.714844 239.933594 283.972656 L 240.121094 282.6875 L 240.261719 281.886719 L 249.121094 281.886719 L 249.25 282.6875 L 249.449219 283.972656 C 249.566406 284.714844 250.25 285.289062 251.007812 285.289062 L 256.238281 285.289062 Z M 256.238281 299.019531 " fill-opacity="1" fill-rule="nonzero"/></g><path fill="#ffffff" d="M 253.695312 288.941406 C 254.378906 288.941406 254.953125 288.367188 254.953125 287.695312 C 254.953125 287.011719 254.394531 286.4375 253.695312 286.4375 C 252.992188 286.4375 252.4375 287.011719 252.4375 287.695312 C 252.4375 288.367188 253.007812 288.941406 253.695312 288.941406 Z M 253.695312 288.941406 " fill-opacity="1" fill-rule="nonzero"/><path fill="#ffffff" d="M 244.675781 285.695312 C 243.0625 285.695312 241.664062 286.269531 240.503906 287.402344 C 239.347656 288.535156 238.761719 289.90625 238.761719 291.488281 C 238.761719 293.070312 239.347656 294.441406 240.503906 295.574219 C 241.664062 296.710938 243.0625 297.246094 244.675781 297.269531 C 247.878906 297.316406 250.628906 294.597656 250.59375 291.488281 C 250.574219 289.894531 250.007812 288.535156 248.851562 287.402344 C 247.691406 286.269531 246.304688 285.695312 244.675781 285.695312 Z M 247.734375 294.5 C 246.890625 295.324219 245.878906 295.730469 244.675781 295.730469 C 243.492188 295.730469 242.476562 295.324219 241.632812 294.5 C 240.789062 293.671875 240.375 292.664062 240.375 291.488281 C 240.375 290.328125 240.789062 289.320312 241.632812 288.492188 C 242.476562 287.667969 243.492188 287.25 244.675781 287.25 C 245.878906 287.25 246.890625 287.667969 247.734375 288.492188 C 248.578125 289.320312 249.007812 290.328125 249.007812 291.488281 C 249.007812 292.664062 248.578125 293.671875 247.734375 294.5 Z M 247.734375 294.5 " fill-opacity="1" fill-rule="nonzero"/><g clip-path="url(#7158d865cf)"><g clip-path="url(#a9e87bfaf4)"><g clip-path="url(#d0dec3c297)"><g clip-path="url(#71d04fd172)"><path fill="#ed1d33" d="M 164.523438 197.894531 C 164.582031 200.679688 159.890625 208.191406 157.101562 208.25 C 154.316406 208.3125 152.742188 200.941406 152.679688 198.152344 C 152.621094 195.363281 156.507812 192.121094 159.300781 192.058594 C 162.085938 192 164.460938 195.105469 164.523438 197.894531 Z M 189.011719 166.71875 C 189.335938 168.6875 189.953125 171.96875 191.472656 174.667969 C 192.246094 176.054688 193.800781 178.09375 194.863281 179.4375 C 196.441406 179.316406 197.972656 179.121094 199.339844 178.726562 C 200.742188 178.324219 202.0625 177.777344 202.8125 176.992188 C 203.175781 176.597656 203.34375 176.207031 203.328125 175.789062 C 203.3125 175.363281 203.074219 174.902344 202.765625 174.519531 C 202.125 173.742188 201.328125 173.167969 200.667969 172.742188 C 199.324219 171.890625 198.472656 171.503906 198.472656 171.503906 C 198.472656 171.503906 198.699219 171.558594 199.121094 171.660156 C 199.535156 171.78125 200.164062 171.929688 200.925781 172.234375 C 201.679688 172.550781 202.632812 172.929688 203.5625 173.761719 C 203.78125 173.960938 204.007812 174.199219 204.207031 174.484375 C 204.417969 174.785156 204.597656 175.136719 204.695312 175.5625 C 204.914062 176.394531 204.617188 177.359375 204.109375 178.03125 C 203.078125 179.378906 201.601562 180.191406 200.035156 180.792969 C 198.457031 181.390625 196.746094 181.808594 194.957031 182.035156 C 193.171875 182.257812 191.316406 182.332031 189.433594 182.261719 C 187.554688 182.160156 185.65625 181.914062 183.785156 181.527344 C 182.859375 181.335938 181.914062 181.109375 181.007812 180.828125 C 180.09375 180.550781 179.308594 180.304688 178.445312 180.078125 C 176.753906 179.644531 175.0625 179.296875 173.410156 179.003906 C 170.101562 178.464844 166.960938 178.214844 164.265625 178.210938 C 161.574219 178.21875 159.328125 178.472656 157.804688 178.882812 C 157.683594 178.914062 157.597656 178.949219 157.484375 178.984375 C 156.1875 179.359375 155.496094 179.816406 155.496094 179.816406 C 155.496094 179.816406 155.644531 179.640625 155.976562 179.351562 C 156.308594 179.058594 156.835938 178.667969 157.574219 178.292969 C 159.042969 177.507812 161.332031 176.78125 164.136719 176.398438 C 166.9375 176.003906 170.257812 175.914062 173.777344 176.296875 C 175.539062 176.46875 177.351562 176.773438 179.167969 177.222656 C 180.058594 177.433594 181.019531 177.707031 181.863281 177.953125 C 182.191406 178.042969 182.527344 178.117188 182.859375 178.207031 C 183.023438 177.914062 183.183594 177.628906 183.3125 177.371094 C 184.109375 175.753906 183.960938 173.003906 183.589844 170.734375 C 183.375 169.398438 183.179688 168.085938 182.980469 166.777344 C 158.066406 167.84375 138.40625 179.265625 138.957031 204.433594 C 139.523438 230.230469 160.890625 250.6875 186.691406 250.121094 C 212.492188 249.558594 232.949219 228.1875 232.382812 202.390625 C 231.847656 177.988281 212.894531 167.328125 189.011719 166.71875 " fill-opacity="1" fill-rule="nonzero"/></g></g></g></g><g clip-path="url(#7ae3fb0bc7)"><g clip-path="url(#80287ee653)"><g clip-path="url(#39a2a00f37)"><g clip-path="url(#fc3045d0a9)"><path fill="#459236" d="M 226.234375 48.347656 C 226.050781 48.472656 225.023438 48.992188 223.808594 49.367188 C 223.132812 49.578125 222.410156 49.746094 221.746094 49.792969 C 220.296875 49.882812 218.234375 51.484375 217.996094 51.683594 C 214.535156 54.539062 211.347656 57.585938 208.433594 60.835938 C 187.804688 83.839844 180.894531 117.214844 188.914062 166.128906 C 188.945312 166.304688 188.976562 166.511719 189.011719 166.71875 C 189.335938 168.6875 189.953125 171.96875 191.472656 174.667969 C 192.246094 176.054688 193.800781 178.09375 194.863281 179.4375 C 194.808594 179.4375 194.757812 179.449219 194.703125 179.453125 C 193.0625 179.566406 191.347656 179.539062 189.617188 179.378906 C 188.308594 179.28125 186.988281 179.085938 185.675781 178.839844 C 185.824219 177.878906 185.828125 176.761719 185.769531 176.472656 C 175.707031 122.097656 182.777344 82.992188 205.519531 57.386719 C 207.972656 54.625 210.601562 52.015625 213.417969 49.566406 C 213.683594 49.332031 215.261719 48.238281 216.488281 47.667969 C 217.84375 47.027344 219.097656 46.84375 219.511719 46.101562 C 219.320312 45.792969 219.191406 45.492188 219.183594 45.222656 C 219.140625 43.214844 217.800781 41.730469 218.996094 40.296875 C 218.988281 40.285156 218.980469 40.261719 218.972656 40.25 C 218.078125 40.949219 217.300781 42.011719 216.644531 43.050781 C 216.398438 43.4375 216.113281 43.929688 215.816406 44.445312 C 216.113281 43.929688 216.398438 43.433594 216.644531 43.042969 C 217.300781 42 218.078125 40.941406 218.96875 40.242188 C 219.015625 40.226562 219.074219 40.167969 219.117188 40.132812 C 220.277344 39.308594 223.40625 39.375 224.949219 40.734375 C 230.324219 45.480469 227.539062 47.320312 226.234375 48.347656 " fill-opacity="1" fill-rule="nonzero"/></g></g></g></g><g clip-path="url(#c22b638c42)"><g clip-path="url(#a98ea3ce26)"><g clip-path="url(#34bebb11be)"><g clip-path="url(#6f03a560c4)"><path fill="#6dc741" d="M 219.183594 45.222656 C 219.191406 45.492188 219.320312 45.792969 219.511719 46.101562 C 219.097656 46.84375 217.84375 47.027344 216.488281 47.667969 C 215.261719 48.238281 213.683594 49.332031 213.417969 49.566406 C 210.601562 52.015625 207.972656 54.625 205.519531 57.386719 C 182.777344 82.992188 175.707031 122.097656 185.769531 176.472656 C 185.828125 176.761719 185.824219 177.878906 185.675781 178.839844 C 185.253906 178.761719 184.832031 178.699219 184.414062 178.605469 C 183.886719 178.484375 183.375 178.34375 182.859375 178.207031 C 183.023438 177.914062 183.183594 177.628906 183.3125 177.371094 C 184.109375 175.753906 183.960938 173.003906 183.589844 170.734375 C 183.375 169.398438 183.179688 168.085938 182.980469 166.777344 C 178.914062 139.746094 178.914062 116.703125 183.316406 97.460938 C 183.457031 96.851562 183.59375 96.257812 183.746094 95.683594 C 187.785156 79.9375 194.730469 66.734375 204.5 56.183594 C 205.78125 54.808594 207.101562 53.46875 208.476562 52.179688 C 209.050781 51.636719 209.628906 51.113281 210.222656 50.601562 C 211.394531 49.5625 212.597656 48.554688 213.84375 47.574219 L 213.886719 47.53125 C 214.238281 47.238281 215.058594 45.765625 215.816406 44.445312 C 216.113281 43.929688 216.398438 43.4375 216.644531 43.050781 C 217.300781 42.011719 218.078125 40.949219 218.972656 40.25 C 218.980469 40.261719 218.988281 40.285156 218.996094 40.296875 C 217.800781 41.730469 219.140625 43.214844 219.183594 45.222656 " fill-opacity="1" fill-rule="nonzero"/></g></g></g></g><g clip-path="url(#8ed68da208)"><g clip-path="url(#2bfdccb567)"><g clip-path="url(#54b1fb4d17)"><g clip-path="url(#b5a2f1c844)"><path fill="#ffffff" d="M 152.679688 198.152344 C 152.742188 200.941406 154.316406 208.3125 157.101562 208.25 C 159.890625 208.191406 164.582031 200.679688 164.523438 197.894531 C 164.460938 195.105469 162.085938 192 159.300781 192.058594 C 156.507812 192.121094 152.621094 195.363281 152.679688 198.152344 Z M 184.414062 178.605469 C 184.832031 178.699219 185.253906 178.761719 185.675781 178.839844 C 186.988281 179.085938 188.308594 179.28125 189.617188 179.378906 C 191.347656 179.539062 193.0625 179.566406 194.703125 179.453125 C 194.757812 179.449219 194.808594 179.4375 194.863281 179.4375 C 196.441406 179.316406 197.972656 179.121094 199.339844 178.726562 C 200.742188 178.324219 202.0625 177.777344 202.8125 176.992188 C 203.175781 176.597656 203.34375 176.207031 203.328125 175.789062 C 203.3125 175.363281 203.074219 174.902344 202.765625 174.519531 C 202.125 173.742188 201.328125 173.167969 200.667969 172.742188 C 199.324219 171.890625 198.472656 171.503906 198.472656 171.503906 C 198.472656 171.503906 198.699219 171.558594 199.121094 171.660156 C 199.535156 171.78125 200.164062 171.929688 200.925781 172.234375 C 201.679688 172.550781 202.632812 172.929688 203.5625 173.761719 C 203.78125 173.960938 204.007812 174.199219 204.207031 174.484375 C 204.417969 174.785156 204.597656 175.136719 204.695312 175.5625 C 204.914062 176.394531 204.617188 177.359375 204.109375 178.03125 C 203.078125 179.378906 201.601562 180.191406 200.035156 180.792969 C 198.457031 181.390625 196.746094 181.808594 194.957031 182.035156 C 193.171875 182.257812 191.316406 182.332031 189.433594 182.261719 C 187.554688 182.160156 185.65625 181.914062 183.785156 181.527344 C 182.859375 181.335938 181.914062 181.109375 181.007812 180.828125 C 180.09375 180.550781 179.308594 180.304688 178.445312 180.078125 C 176.753906 179.644531 175.0625 179.296875 173.410156 179.003906 C 170.101562 178.464844 166.960938 178.214844 164.265625 178.210938 C 161.574219 178.21875 159.328125 178.472656 157.804688 178.882812 C 157.683594 178.914062 157.597656 178.949219 157.484375 178.984375 C 156.1875 179.359375 155.496094 179.816406 155.496094 179.816406 C 155.496094 179.816406 155.644531 179.640625 155.976562 179.351562 C 156.308594 179.058594 156.835938 178.667969 157.574219 178.292969 C 159.042969 177.507812 161.332031 176.78125 164.136719 176.398438 C 166.9375 176.003906 170.257812 175.914062 173.777344 176.296875 C 175.539062 176.46875 177.351562 176.773438 179.167969 177.222656 C 180.058594 177.433594 181.019531 177.707031 181.863281 177.953125 C 182.191406 178.042969 182.527344 178.117188 182.859375 178.207031 C 183.375 178.34375 183.886719 178.484375 184.414062 178.605469 " fill-opacity="1" fill-rule="nonzero"/></g></g></g></g></svg>